<svg width="1112" height="1112" viewBox="0 0 1112 1112" fill="none" xmlns="http://www.w3.org/2000/svg">
<g clip-path="url(#clip0_10_3)">
<mask id="mask0_10_3" style="mask-type:alpha" maskUnits="userSpaceOnUse" x="1" y="0" width="1111" height="1111">
<path d="M1101.5 555.753C1101.5 856.557 857.501 1100.42 556.5 1100.42C255.499 1100.42 11.5 856.557 11.5 555.753C11.5 254.95 255.499 11.089 556.5 11.089C857.501 11.089 1101.5 254.95 1101.5 555.753Z" stroke="black" stroke-width="21"/>
<path d="M682.82 301.239C685.036 319.522 686.145 330.049 686.145 332.819L684.482 369.801C683.928 385.591 683.236 395.702 682.405 400.135C679.912 401.243 677.834 401.797 676.172 401.797L672.432 400.966C663.568 362.183 648.47 333.927 627.14 316.198C606.086 298.469 580.324 289.604 549.852 289.604C518.271 289.604 492.37 298.469 472.148 316.198C451.926 333.927 441.814 354.565 441.814 378.112C441.814 396.118 448.878 412.601 463.006 427.56C477.134 442.519 513.285 464.957 571.459 494.875C615.782 517.868 647.5 536.705 666.615 551.387C685.729 565.792 700.134 582.551 709.83 601.666C719.525 620.78 724.373 642.11 724.373 665.657C724.373 695.298 716.617 723.138 701.104 749.178C685.868 775.217 665.23 794.886 639.19 808.183C613.15 821.202 578.661 827.712 535.724 827.712C498.326 827.712 462.452 821.757 428.102 809.845C407.88 802.642 395.552 796.825 391.12 792.393C386.688 787.96 384.472 783.251 384.472 778.265C384.472 775.217 384.749 771.339 385.303 766.63C389.181 733.942 391.259 707.071 391.536 686.018C392.09 672.998 393.059 665.38 394.444 663.164C395.552 661.224 397.63 660.255 400.677 660.255C403.17 660.255 405.11 661.224 406.495 663.164C408.157 664.826 409.265 668.15 409.819 673.136C412.866 707.209 428.656 737.681 457.189 764.552C485.445 791.423 517.44 804.858 553.176 804.858C575.06 804.858 595.144 800.288 613.427 791.146C631.987 782.004 646.392 768.846 656.642 751.671C667.169 734.219 672.432 717.321 672.432 700.977C672.432 678.538 664.537 658.039 648.747 639.479C632.957 620.918 601.238 599.311 553.591 574.656C505.944 549.725 474.918 531.58 460.513 520.222C437.244 501.662 419.792 481.994 408.157 461.217C399.569 445.15 395.275 426.451 395.275 405.121C395.275 366.616 410.511 334.066 440.983 307.472C471.455 280.601 512.316 267.166 563.564 267.166C591.82 267.166 616.197 270.352 636.697 276.723C651.656 281.709 667.03 289.882 682.82 301.239Z" fill="black"/>
</mask>
<g mask="url(#mask0_10_3)">
<rect y="1" width="1111" height="1111" fill="url(#paint0_linear_10_3)"/>
</g>
</g>
<defs>
<linearGradient id="paint0_linear_10_3" x1="555.5" y1="1" x2="555.5" y2="1112" gradientUnits="userSpaceOnUse">
<stop stop-color="#E9F5A6"/>
<stop offset="1" stop-color="#44C3E9"/>
</linearGradient>
<clipPath id="clip0_10_3">
<rect width="1112" height="1112" fill="white"/>
</clipPath>
</defs>
</svg>
